<mxfile host="Electron" modified="2023-10-09T07:43:29.185Z" agent="Mozilla/5.0 (Windows NT 10.0; Win64; x64) AppleWebKit/537.36 (KHTML, like Gecko) draw.io/22.0.2 Chrome/114.0.5735.289 Electron/25.8.4 Safari/537.36" etag="4nGeGbKcAVk9ytw38yxw" version="22.0.2" type="device">
  <diagram name="Seite-1" id="UXbr001qAZ8YUwBqj6tf">
    <mxGraphModel dx="1546" dy="900" grid="1" gridSize="10" guides="1" tooltips="1" connect="1" arrows="1" fold="1" page="1" pageScale="1" pageWidth="827" pageHeight="1169" math="0" shadow="0">
      <root>
        <mxCell id="0" />
        <mxCell id="1" parent="0" />
        <mxCell id="DpqsgZe1GaUblpMXzOOC-1" value="SENSORpi" style="verticalAlign=top;align=left;spacingTop=8;spacingLeft=2;spacingRight=12;shape=cube;size=10;direction=south;fontStyle=4;html=1;whiteSpace=wrap;" parent="1" vertex="1">
          <mxGeometry x="40" y="20" width="260" height="450" as="geometry" />
        </mxCell>
        <mxCell id="DpqsgZe1GaUblpMXzOOC-25" value="" style="edgeStyle=orthogonalEdgeStyle;rounded=0;orthogonalLoop=1;jettySize=auto;html=1;" parent="1" source="DpqsgZe1GaUblpMXzOOC-2" target="DpqsgZe1GaUblpMXzOOC-5" edge="1">
          <mxGeometry relative="1" as="geometry" />
        </mxCell>
        <mxCell id="DpqsgZe1GaUblpMXzOOC-2" value="SmartMonitoringFrontend" style="shape=module;align=left;spacingLeft=20;align=center;verticalAlign=top;whiteSpace=wrap;html=1;" parent="1" vertex="1">
          <mxGeometry x="70" y="210" width="190" height="50" as="geometry" />
        </mxCell>
        <mxCell id="DpqsgZe1GaUblpMXzOOC-3" value="SmartMonitoringBackend" style="shape=module;align=left;spacingLeft=20;align=center;verticalAlign=top;whiteSpace=wrap;html=1;" parent="1" vertex="1">
          <mxGeometry x="70" y="60" width="190" height="50" as="geometry" />
        </mxCell>
        <mxCell id="DpqsgZe1GaUblpMXzOOC-4" value="SmartData" style="shape=module;align=left;spacingLeft=20;align=center;verticalAlign=top;whiteSpace=wrap;html=1;" parent="1" vertex="1">
          <mxGeometry x="70" y="120" width="190" height="50" as="geometry" />
        </mxCell>
        <mxCell id="DpqsgZe1GaUblpMXzOOC-5" value="SmartBridge" style="shape=module;align=left;spacingLeft=20;align=center;verticalAlign=top;whiteSpace=wrap;html=1;" parent="1" vertex="1">
          <mxGeometry x="70" y="300" width="190" height="50" as="geometry" />
        </mxCell>
        <mxCell id="DpqsgZe1GaUblpMXzOOC-6" value="SensorB" style="verticalAlign=top;align=left;spacingTop=8;spacingLeft=2;spacingRight=12;shape=cube;size=10;direction=south;fontStyle=4;html=1;whiteSpace=wrap;" parent="1" vertex="1">
          <mxGeometry x="170" y="390" width="100" height="70" as="geometry" />
        </mxCell>
        <mxCell id="DpqsgZe1GaUblpMXzOOC-7" value="SensorA" style="verticalAlign=top;align=left;spacingTop=8;spacingLeft=2;spacingRight=12;shape=cube;size=10;direction=south;fontStyle=4;html=1;whiteSpace=wrap;" parent="1" vertex="1">
          <mxGeometry x="60" y="390" width="100" height="70" as="geometry" />
        </mxCell>
        <mxCell id="DpqsgZe1GaUblpMXzOOC-8" value="WebServer" style="verticalAlign=top;align=left;spacingTop=8;spacingLeft=2;spacingRight=12;shape=cube;size=10;direction=south;fontStyle=4;html=1;whiteSpace=wrap;" parent="1" vertex="1">
          <mxGeometry x="450" y="20" width="350" height="450" as="geometry" />
        </mxCell>
        <mxCell id="DpqsgZe1GaUblpMXzOOC-9" value="SmartMonitoringFrontend" style="shape=module;align=left;spacingLeft=20;align=center;verticalAlign=top;whiteSpace=wrap;html=1;" parent="1" vertex="1">
          <mxGeometry x="480" y="120" width="190" height="50" as="geometry" />
        </mxCell>
        <mxCell id="DpqsgZe1GaUblpMXzOOC-10" value="SmartMonitoringBackend" style="shape=module;align=left;spacingLeft=20;align=center;verticalAlign=top;whiteSpace=wrap;html=1;" parent="1" vertex="1">
          <mxGeometry x="480" y="60" width="190" height="50" as="geometry" />
        </mxCell>
        <mxCell id="DpqsgZe1GaUblpMXzOOC-11" value="SmartData" style="shape=module;align=left;spacingLeft=20;align=center;verticalAlign=top;whiteSpace=wrap;html=1;" parent="1" vertex="1">
          <mxGeometry x="480" y="312" width="190" height="50" as="geometry" />
        </mxCell>
        <mxCell id="DpqsgZe1GaUblpMXzOOC-12" value="SmartDataLyser" style="shape=module;align=left;spacingLeft=20;align=center;verticalAlign=top;whiteSpace=wrap;html=1;" parent="1" vertex="1">
          <mxGeometry x="590" y="210" width="190" height="50" as="geometry" />
        </mxCell>
        <mxCell id="DpqsgZe1GaUblpMXzOOC-15" value="" style="rounded=0;orthogonalLoop=1;jettySize=auto;html=1;endArrow=none;endFill=0;sketch=0;sourcePerimeterSpacing=0;targetPerimeterSpacing=0;exitX=0;exitY=0;exitDx=0;exitDy=15;exitPerimeter=0;" parent="1" source="DpqsgZe1GaUblpMXzOOC-11" target="DpqsgZe1GaUblpMXzOOC-17" edge="1">
          <mxGeometry relative="1" as="geometry">
            <mxPoint x="180" y="570" as="sourcePoint" />
          </mxGeometry>
        </mxCell>
        <mxCell id="DpqsgZe1GaUblpMXzOOC-16" value="" style="rounded=0;orthogonalLoop=1;jettySize=auto;html=1;endArrow=halfCircle;endFill=0;entryX=0.5;entryY=0.5;endSize=6;strokeWidth=1;sketch=0;exitX=1;exitY=0.25;exitDx=0;exitDy=0;" parent="1" source="DpqsgZe1GaUblpMXzOOC-2" target="DpqsgZe1GaUblpMXzOOC-17" edge="1">
          <mxGeometry relative="1" as="geometry">
            <mxPoint x="600" y="600" as="sourcePoint" />
          </mxGeometry>
        </mxCell>
        <mxCell id="DpqsgZe1GaUblpMXzOOC-17" value="" style="ellipse;whiteSpace=wrap;html=1;align=center;aspect=fixed;resizable=0;points=[];outlineConnect=0;sketch=0;" parent="1" vertex="1">
          <mxGeometry x="420" y="290" width="10" height="10" as="geometry" />
        </mxCell>
        <mxCell id="DpqsgZe1GaUblpMXzOOC-18" value="Synchronisation" style="text;align=center;fontStyle=1;verticalAlign=middle;spacingLeft=3;spacingRight=3;strokeColor=none;rotatable=0;points=[[0,0.5],[1,0.5]];portConstraint=eastwest;html=1;" parent="1" vertex="1">
          <mxGeometry x="320" y="254" width="80" height="26" as="geometry" />
        </mxCell>
        <mxCell id="DpqsgZe1GaUblpMXzOOC-19" value="REST API" style="text;align=center;fontStyle=1;verticalAlign=middle;spacingLeft=3;spacingRight=3;strokeColor=none;rotatable=0;points=[[0,0.5],[1,0.5]];portConstraint=eastwest;html=1;" parent="1" vertex="1">
          <mxGeometry x="374" y="312" width="80" height="26" as="geometry" />
        </mxCell>
        <mxCell id="DpqsgZe1GaUblpMXzOOC-20" value="" style="rounded=0;orthogonalLoop=1;jettySize=auto;html=1;endArrow=none;endFill=0;sketch=0;sourcePerimeterSpacing=0;targetPerimeterSpacing=0;exitX=0.5;exitY=0;exitDx=0;exitDy=0;" parent="1" source="DpqsgZe1GaUblpMXzOOC-5" target="DpqsgZe1GaUblpMXzOOC-22" edge="1">
          <mxGeometry relative="1" as="geometry">
            <mxPoint x="390" y="365" as="sourcePoint" />
          </mxGeometry>
        </mxCell>
        <mxCell id="DpqsgZe1GaUblpMXzOOC-21" value="" style="rounded=0;orthogonalLoop=1;jettySize=auto;html=1;endArrow=halfCircle;endFill=0;entryX=0.5;entryY=0.5;endSize=6;strokeWidth=1;sketch=0;exitX=0.5;exitY=1;exitDx=0;exitDy=0;" parent="1" source="DpqsgZe1GaUblpMXzOOC-2" target="DpqsgZe1GaUblpMXzOOC-22" edge="1">
          <mxGeometry relative="1" as="geometry">
            <mxPoint x="430" y="365" as="sourcePoint" />
          </mxGeometry>
        </mxCell>
        <mxCell id="DpqsgZe1GaUblpMXzOOC-22" value="" style="ellipse;whiteSpace=wrap;html=1;align=center;aspect=fixed;resizable=0;points=[];outlineConnect=0;sketch=0;" parent="1" vertex="1">
          <mxGeometry x="160" y="270" width="10" height="10" as="geometry" />
        </mxCell>
        <mxCell id="DpqsgZe1GaUblpMXzOOC-23" value="Use" style="endArrow=open;endSize=12;dashed=1;html=1;rounded=0;exitX=0.25;exitY=1;exitDx=0;exitDy=0;entryX=0;entryY=0;entryDx=0;entryDy=45;entryPerimeter=0;" parent="1" source="DpqsgZe1GaUblpMXzOOC-5" target="DpqsgZe1GaUblpMXzOOC-7" edge="1">
          <mxGeometry width="160" relative="1" as="geometry">
            <mxPoint x="330" y="370" as="sourcePoint" />
            <mxPoint x="490" y="370" as="targetPoint" />
          </mxGeometry>
        </mxCell>
        <mxCell id="DpqsgZe1GaUblpMXzOOC-24" value="Use" style="endArrow=open;endSize=12;dashed=1;html=1;rounded=0;exitX=0.75;exitY=1;exitDx=0;exitDy=0;entryX=0.029;entryY=0.55;entryDx=0;entryDy=0;entryPerimeter=0;" parent="1" source="DpqsgZe1GaUblpMXzOOC-5" target="DpqsgZe1GaUblpMXzOOC-6" edge="1">
          <mxGeometry width="160" relative="1" as="geometry">
            <mxPoint x="330" y="370" as="sourcePoint" />
            <mxPoint x="490" y="370" as="targetPoint" />
          </mxGeometry>
        </mxCell>
        <mxCell id="DpqsgZe1GaUblpMXzOOC-26" value="" style="rounded=0;orthogonalLoop=1;jettySize=auto;html=1;endArrow=none;endFill=0;sketch=0;sourcePerimeterSpacing=0;targetPerimeterSpacing=0;exitX=0.5;exitY=1;exitDx=0;exitDy=0;" parent="1" source="DpqsgZe1GaUblpMXzOOC-4" target="DpqsgZe1GaUblpMXzOOC-28" edge="1">
          <mxGeometry relative="1" as="geometry">
            <mxPoint x="390" y="365" as="sourcePoint" />
          </mxGeometry>
        </mxCell>
        <mxCell id="DpqsgZe1GaUblpMXzOOC-27" value="" style="rounded=0;orthogonalLoop=1;jettySize=auto;html=1;endArrow=halfCircle;endFill=0;entryX=0.5;entryY=0.5;endSize=6;strokeWidth=1;sketch=0;exitX=0.5;exitY=0;exitDx=0;exitDy=0;" parent="1" source="DpqsgZe1GaUblpMXzOOC-2" target="DpqsgZe1GaUblpMXzOOC-28" edge="1">
          <mxGeometry relative="1" as="geometry">
            <mxPoint x="430" y="365" as="sourcePoint" />
          </mxGeometry>
        </mxCell>
        <mxCell id="DpqsgZe1GaUblpMXzOOC-28" value="" style="ellipse;whiteSpace=wrap;html=1;align=center;aspect=fixed;resizable=0;points=[];outlineConnect=0;sketch=0;" parent="1" vertex="1">
          <mxGeometry x="160" y="180" width="10" height="10" as="geometry" />
        </mxCell>
        <mxCell id="DpqsgZe1GaUblpMXzOOC-29" value="" style="rounded=0;orthogonalLoop=1;jettySize=auto;html=1;endArrow=none;endFill=0;sketch=0;sourcePerimeterSpacing=0;targetPerimeterSpacing=0;exitX=0.5;exitY=0;exitDx=0;exitDy=0;" parent="1" source="DpqsgZe1GaUblpMXzOOC-12" target="DpqsgZe1GaUblpMXzOOC-31" edge="1">
          <mxGeometry relative="1" as="geometry">
            <mxPoint x="390" y="365" as="sourcePoint" />
          </mxGeometry>
        </mxCell>
        <mxCell id="DpqsgZe1GaUblpMXzOOC-30" value="" style="rounded=0;orthogonalLoop=1;jettySize=auto;html=1;endArrow=halfCircle;endFill=0;entryX=0.5;entryY=0.5;endSize=6;strokeWidth=1;sketch=0;exitX=0.75;exitY=1;exitDx=0;exitDy=0;" parent="1" source="DpqsgZe1GaUblpMXzOOC-9" target="DpqsgZe1GaUblpMXzOOC-31" edge="1">
          <mxGeometry relative="1" as="geometry">
            <mxPoint x="430" y="365" as="sourcePoint" />
          </mxGeometry>
        </mxCell>
        <mxCell id="DpqsgZe1GaUblpMXzOOC-31" value="" style="ellipse;whiteSpace=wrap;html=1;align=center;aspect=fixed;resizable=0;points=[];outlineConnect=0;sketch=0;" parent="1" vertex="1">
          <mxGeometry x="680" y="190" width="10" height="10" as="geometry" />
        </mxCell>
        <mxCell id="DpqsgZe1GaUblpMXzOOC-32" value="" style="rounded=0;orthogonalLoop=1;jettySize=auto;html=1;endArrow=none;endFill=0;sketch=0;sourcePerimeterSpacing=0;targetPerimeterSpacing=0;exitX=0.5;exitY=0;exitDx=0;exitDy=0;" parent="1" source="DpqsgZe1GaUblpMXzOOC-11" target="DpqsgZe1GaUblpMXzOOC-34" edge="1">
          <mxGeometry relative="1" as="geometry">
            <mxPoint x="390" y="365" as="sourcePoint" />
          </mxGeometry>
        </mxCell>
        <mxCell id="DpqsgZe1GaUblpMXzOOC-33" value="" style="rounded=0;orthogonalLoop=1;jettySize=auto;html=1;endArrow=halfCircle;endFill=0;entryX=0.5;entryY=0.5;endSize=6;strokeWidth=1;sketch=0;exitX=0.25;exitY=1;exitDx=0;exitDy=0;" parent="1" source="DpqsgZe1GaUblpMXzOOC-9" target="DpqsgZe1GaUblpMXzOOC-34" edge="1">
          <mxGeometry relative="1" as="geometry">
            <mxPoint x="430" y="365" as="sourcePoint" />
          </mxGeometry>
        </mxCell>
        <mxCell id="DpqsgZe1GaUblpMXzOOC-34" value="" style="ellipse;whiteSpace=wrap;html=1;align=center;aspect=fixed;resizable=0;points=[];outlineConnect=0;sketch=0;" parent="1" vertex="1">
          <mxGeometry x="570" y="290" width="10" height="10" as="geometry" />
        </mxCell>
        <mxCell id="DpqsgZe1GaUblpMXzOOC-36" value="" style="rounded=0;orthogonalLoop=1;jettySize=auto;html=1;endArrow=halfCircle;endFill=0;endSize=6;strokeWidth=1;sketch=0;exitX=0.5;exitY=1;exitDx=0;exitDy=0;" parent="1" source="DpqsgZe1GaUblpMXzOOC-12" target="DpqsgZe1GaUblpMXzOOC-34" edge="1">
          <mxGeometry relative="1" as="geometry">
            <mxPoint x="450" y="530" as="sourcePoint" />
            <mxPoint x="410" y="365" as="targetPoint" />
          </mxGeometry>
        </mxCell>
        <mxCell id="r3ELbgd50D0zSYWs7ENX-1" value="" style="rounded=0;orthogonalLoop=1;jettySize=auto;html=1;endArrow=halfCircle;endFill=0;endSize=6;strokeWidth=1;sketch=0;fontSize=12;curved=1;exitX=1;exitY=0.5;exitDx=0;exitDy=0;" edge="1" parent="1" source="DpqsgZe1GaUblpMXzOOC-5">
          <mxGeometry relative="1" as="geometry">
            <mxPoint x="425" y="465" as="sourcePoint" />
            <mxPoint x="410" y="300" as="targetPoint" />
          </mxGeometry>
        </mxCell>
        <mxCell id="r3ELbgd50D0zSYWs7ENX-3" value="Live sending" style="edgeLabel;html=1;align=center;verticalAlign=middle;resizable=0;points=[];" vertex="1" connectable="0" parent="r3ELbgd50D0zSYWs7ENX-1">
          <mxGeometry x="0.0897" y="-2" relative="1" as="geometry">
            <mxPoint as="offset" />
          </mxGeometry>
        </mxCell>
        <mxCell id="r3ELbgd50D0zSYWs7ENX-2" value="" style="ellipse;whiteSpace=wrap;html=1;align=center;aspect=fixed;fillColor=none;strokeColor=none;resizable=0;perimeter=centerPerimeter;rotatable=0;allowArrows=0;points=[];outlineConnect=1;" vertex="1" parent="1">
          <mxGeometry x="400" y="460" width="10" height="10" as="geometry" />
        </mxCell>
      </root>
    </mxGraphModel>
  </diagram>
</mxfile>
